<!-- Generator: Adobe Illustrator 24.3.0, SVG Export Plug-In  -->
<svg version="1.1" xmlns="http://www.w3.org/2000/svg" xmlns:xlink="http://www.w3.org/1999/xlink" x="0px" y="0px"
	 width="923.08px" height="205.94px" viewBox="0 0 923.08 205.94"
	 style="overflow:visible;enable-background:new 0 0 923.08 205.94;" xml:space="preserve">
<style type="text/css">
	.st0{fill:#E52421;}
	.st1{fill:#FFFFFF;}
	.st2{fill:#FAF8F7;}
</style>
<defs>
</defs>
<g id="g7433_1_">
	<path id="path7429_1_" class="st0" d="M288.07,32.22c-3.39-12.6-13.33-22.53-25.92-25.92C239.13,0,147.06,0,147.06,0
		S55,0,31.98,6.06C19.62,9.45,9.45,19.62,6.06,32.22C0,55.24,0,102.97,0,102.97s0,47.97,6.06,70.74
		c3.39,12.6,13.33,22.53,25.92,25.92c23.26,6.3,115.08,6.3,115.08,6.3s92.07,0,115.08-6.06c12.6-3.39,22.53-13.33,25.92-25.92
		c6.06-23.02,6.06-70.75,6.06-70.75S294.37,55.24,288.07,32.22L288.07,32.22z"/>
	<path id="polygon7431_1_" class="st1" d="M117.75,58.87v88.19l76.56-44.09L117.75,58.87z"/>
</g>
<g id="g7451_1_">
	<g id="g7449_2_">
		<path id="path7435_2_" class="st2" d="M427.14,187.52c-5.81-3.88-9.93-9.93-12.36-18.41c-2.42-8.24-3.63-19.38-3.63-32.95V117.5
			c0-13.81,1.45-24.95,4.12-33.43c2.91-8.48,7.27-14.54,13.08-18.41c6.06-3.88,13.81-5.81,23.5-5.81c9.45,0,17.2,1.94,23.02,5.81
			s9.93,10.18,12.6,18.41c2.67,8.24,4.12,19.38,4.12,33.43v18.66c0,13.81-1.21,24.71-3.88,33.19c-2.67,8.24-6.78,14.54-12.6,18.41
			c-5.81,3.88-13.81,5.81-23.74,5.81C441.19,193.34,432.95,191.4,427.14,187.52L427.14,187.52z M459.84,167.17
			c1.7-4.12,2.42-11.14,2.42-20.59v-40.22c0-9.21-0.73-15.99-2.42-20.35c-1.7-4.36-4.36-6.3-8.48-6.3c-3.88,0-6.78,2.18-8.24,6.3
			c-1.7,4.36-2.42,11.14-2.42,20.35v40.22c0,9.45,0.73,16.47,2.42,20.59c1.45,4.12,4.36,6.3,8.48,6.3
			C455.48,173.47,458.15,171.53,459.84,167.17z"/>
		<path id="path7437_2_" class="st2" d="M874.38,136.4v6.54c0,8.24,0.24,14.54,0.73,18.66c0.48,4.12,1.45,7.27,3.15,8.96
			c1.45,1.94,3.88,2.91,7.27,2.91c4.36,0,7.27-1.7,8.96-5.09s2.42-8.96,2.67-16.96l24.95,1.45c0.24,1.21,0.24,2.67,0.24,4.6
			c0,11.87-3.15,20.84-9.69,26.65s-15.75,8.72-27.62,8.72c-14.29,0-24.23-4.6-30.04-13.57s-8.72-22.77-8.72-41.67v-22.53
			c0-19.38,2.91-33.43,8.96-42.4s16.23-13.33,30.53-13.33c9.93,0,17.69,1.94,23.02,5.57c5.33,3.63,8.96,9.45,11.14,16.96
			c2.18,7.75,3.15,18.41,3.15,31.98v22.05h-48.7V136.4z M878.01,82.13c-1.45,1.94-2.42,4.85-2.91,8.96
			c-0.48,4.12-0.73,10.42-0.73,18.9v9.21h21.32v-9.21c0-8.24-0.24-14.54-0.73-18.9c-0.48-4.36-1.7-7.27-3.15-8.96
			c-1.45-1.7-3.88-2.67-6.78-2.67C881.65,79.22,879.47,80.19,878.01,82.13L878.01,82.13z"/>
		<path id="path7439_2_" class="st2" d="M356.39,133.98L323.44,14.54h28.83l11.63,54.03c2.91,13.33,5.09,24.71,6.54,34.16h0.73
			c0.97-6.78,3.15-17.93,6.54-33.92l12.11-54.27h28.83l-33.43,119.44v57.18h-28.59v-57.18H356.39z"/>
		<path id="path7441_2_" class="st2" d="M585.34,62.27V191.4h-22.77l-2.42-15.75h-0.73c-6.06,11.87-15.51,17.93-27.86,17.93
			c-8.48,0-14.78-2.91-18.9-8.48c-4.12-5.57-6.06-14.29-6.06-26.41V62.27h29.07V157c0,5.81,0.73,9.93,1.94,12.36s3.39,3.63,6.3,3.63
			c2.42,0,4.85-0.73,7.27-2.42c2.42-1.45,4.12-3.39,5.09-5.81V62.27H585.34z"/>
		<path id="path7443_2_" class="st2" d="M734.34,62.27V191.4h-22.77l-2.42-15.75h-0.73c-6.06,11.87-15.51,17.93-27.86,17.93
			c-8.48,0-14.78-2.91-18.9-8.48s-6.06-14.29-6.06-26.41V62.27h29.07V157c0,5.81,0.73,9.93,1.94,12.36c1.21,2.42,3.39,3.63,6.3,3.63
			c2.42,0,4.85-0.73,7.27-2.42c2.42-1.45,4.12-3.39,5.09-5.81V62.27H734.34z"/>
		<path id="path7445_2_" class="st2" d="M664.32,38.04h-28.83v153.12h-28.35V38.04h-28.83v-23.5h86.01V38.04z"/>
		<path id="path7447_2_" class="st2" d="M830.53,82.86c-1.7-8.24-4.6-14.05-8.48-17.69c-3.88-3.63-9.45-5.57-16.23-5.57
			c-5.33,0-10.42,1.45-15.02,4.6c-4.6,2.91-8.24,7.03-10.66,11.87h-0.24V8h-28.1v183.16h23.99l2.91-12.11h0.73
			c2.18,4.36,5.57,7.75,10.18,10.42c4.6,2.42,9.45,3.88,15.02,3.88c9.93,0,16.96-4.6,21.56-13.57c4.6-8.96,7.03-23.26,7.03-42.4
			v-20.35C832.95,102.24,832.22,90.85,830.53,82.86L830.53,82.86z M803.88,135.43c0,9.45-0.48,16.72-1.21,22.05
			s-2.18,9.21-3.88,11.39c-1.94,2.18-4.36,3.39-7.27,3.39c-2.42,0-4.6-0.48-6.54-1.7c-1.94-1.21-3.63-2.91-4.85-5.09V92.31
			c0.97-3.39,2.67-6.3,5.09-8.72c2.42-2.18,5.09-3.39,7.75-3.39c2.91,0,5.33,1.21,6.78,3.39c1.7,2.42,2.67,6.3,3.39,11.63
			c0.73,5.57,0.97,13.33,0.97,23.26v16.96H803.88z"/>
	</g>
</g>
</svg>
